<svg version="1.0" xmlns="http://www.w3.org/2000/svg" width="458.667" height="458.667" viewBox="0 0 344 344"><path d="M151 15c-45.6 2.7-87.2 14.3-111.5 31.1C25.8 55.6 17.4 67 15.1 79.5c-1.3 7.1.1 17.8 11.3 83.5 4.1 23.9 9.7 57.2 12.6 74 6 35.8 6.8 37.8 17.1 47.4 13.2 12.2 36.4 21.6 65.7 26.7 7.1 1.2 7.2 1.3 7.2 4.3 0 4.4 3.1 9.8 7.1 12.1 3.2 1.9 5.2 2 35.9 2s32.7-.1 35.9-2c4-2.4 7.1-7.7 7.1-12.1 0-3.1.2-3.2 5.3-3.9 7.8-1.1 27.2-6 35.7-9 13.1-4.7 24.9-11.4 32.2-18.3 8-7.5 11.4-13.8 12.7-23.7.6-3.9 7.3-44.9 15-91.2 15.7-94.2 15.2-89.1 8.9-101.7-3.6-7.2-13.7-17.6-22.3-23.1C269.4 23.3 209.1 11.6 151 15zm62 30.5c42.4 5.5 78.6 20.1 86 34.5 3.4 6.8 2.4 10.4-5.5 18-5.2 5.1-3.5 5.3-15.1-2.4-16.5-11.1-45.4-19.4-78.7-22.7-17.2-1.7-54.6-.7-71.5 2-25.8 4-51.3 12.5-63.2 21.1-9.6 7-9.4 7-14.6 1.9-7.7-7.5-8.8-11.2-5.4-17.9 8.6-16.8 53.5-32.4 104.5-36.4 11.2-.9 51.6.3 63.5 1.9zm-4.5 56.9c13.5 2.2 24.8 5.1 38.4 9.9 13.2 4.6 13.5 4.1-5.4 8.8-24.3 5.9-37 7.3-69 7.3-34.9.1-50-1.8-78.7-9.5l-7.9-2.2 4.2-1.8c12.3-5.6 38.5-12.1 55.7-13.9 12.8-1.3 50.8-.4 62.7 1.4zM57.7 136.1c8.8 3.8 27.6 10 39.4 12.9 46.4 11.7 103.4 11.7 149.8 0 11.8-2.9 30.6-9.1 39.4-12.9 2.7-1.2 5.2-2.1 5.6-2.1.4 0-.2 5.7-1.3 12.7l-2.2 12.8-4.9 3.2c-13.4 8.8-38.3 16.4-68.5 20.9-14.5 2.1-54.1 3-71 1.5-31.8-2.8-56.1-8.7-76.7-18.7-8.4-4.1-11.4-6.1-11.8-7.7-1.7-7.4-4.1-24.7-3.4-24.7.4 0 2.9.9 5.6 2.1zm15.4 63.4c35.1 11.9 65.5 16.2 107.9 15.2 34.6-.8 60.7-5.2 89.9-15.1 5.8-2 10.7-3.4 10.9-3.1.7.7-9.6 62.3-10.8 64.5-1.6 3-12.5 9.6-21.3 13-8.2 3.2-22.4 7.1-30.4 8.5l-4.3.7v-7.9c0-19-8.2-33.4-23.4-40.8-13-6.4-25.4-6.6-38-.7-16 7.6-24.6 22.1-24.6 41.5v7.9l-4.2-.7c-8.1-1.4-22.3-5.3-30.5-8.5-8.8-3.3-19.7-10-21.3-13-.5-1-3.2-15.3-6-31.8-4.7-28.5-5.4-33.2-4.7-33.2.2 0 5 1.6 10.8 3.5zm104.7 59.9c1.5.8 3.8 2.6 5.2 4.1 2.4 2.6 2.5 3.1 2.8 20.1l.3 17.4h-28.2l.3-17.4c.3-15.7.5-17.6 2.3-19.6 5-5.7 11.8-7.5 17.3-4.6z" fill="#eee"/></svg>