<svg version="1.0" xmlns="http://www.w3.org/2000/svg" width="458.667" height="458.667" viewBox="0 0 344 344"><path d="m151 59.5-20.5 29.4-13.5.3-13.5.3-.3 21.7c-.2 17.3.1 22.5 1.2 25.3 1.6 3.7 6.7 7.5 10.4 7.5 2.2 0 2.2 0 2.2 17.5V179h-7v-14H69v14h-7v-14H21v22.5c0 18.5.3 23.2 1.5 25.6 1.7 3.2 6.9 6.9 9.8 6.9 1.6 0 1.7 3 1.7 48v48h104v-24c0-21.7.2-24.4 2.1-29.4 2.6-7.2 9.3-14.4 16.6-18.1 5.2-2.7 6.8-3 15.3-3 8.4 0 10.2.3 15.2 2.8 7.1 3.5 14 11 16.7 18.3 1.9 5 2.1 7.7 2.1 29.4v24h104v-48c0-45 .1-48 1.8-48 2.8 0 8-3.7 9.7-6.9 1.2-2.4 1.5-7.1 1.5-25.6V165h-41v14h-7v-14h-41v14h-7v-17.5c0-17.5 0-17.5 2.3-17.5 3.6 0 8.7-3.8 10.3-7.5 1.1-2.8 1.4-8 1.2-25.3l-.3-21.7-13.5-.3-13.5-.3L193 59.5c-11.3-16.2-20.7-29.4-21-29.4-.3 0-9.7 13.2-21 29.4zM131 110v7h34v-14h14v14h34v-14h14v28H117v-28h14v7zm-83 76v7l17.3-.2 17.2-.3.3-6.8.3-6.7h12.8l.3 6.7.3 6.8h34l.3-6.8.3-6.7H144v27H34v-27h14v7zm165.2-.3.3 6.8h34l.3-6.8.3-6.7h12.8l.3 6.7.3 6.8 17.3.3 17.2.2v-14h14v27H200v-27h12.9l.3 6.7zm-126 57c1.5 1.4 1.8 3.2 1.8 13.5V268H76v-11.7c0-9.4.3-12 1.7-13.5 2-2.2 7-2.3 9.5-.1zm172 0c1.5 1.4 1.8 3.2 1.8 13.5V268h-13v-11.7c0-9.4.3-12 1.7-13.5 2-2.2 7-2.3 9.5-.1z" fill="#eee"/></svg>