<svg id="Banner_text" data-name="Banner text" xmlns="http://www.w3.org/2000/svg" viewBox="0 0 1015.06 326.62"><defs><style>.cls-1{isolation:isolate}.cls-2{fill:none;stroke:#fff;stroke-miterlimit:10}.cls-3{fill:#fffffe}.cls-4{fill:#fff}</style></defs><g id="MULTIVERSE" class="cls-1"><path class="cls-2" d="M15.52 1.63h24.27l9.94 46.81L75.64 1.63h24.17L87 73.84H67l7.1-39.95-20.79 40h-16.8L30 33.69l-7.11 40.15H2.72ZM111 1.63h20l-7.28 41.89c-1.33 7.38 1.13 12.09 8.71 12.09s12-4.71 13.31-12.09l7.38-41.89h20.07l-7.37 41.89c-3.69 21.1-19.16 31-36.87 31-17.41 0-29-10.44-25.3-31ZM204.28 1.63l-9.94 57h22.43L214 73.84h-42.6l12.8-72.21ZM230.5 1.63h58.38l-2.87 16h-19.15l-9.94 56.23h-20.18l9.94-56.23h-19.05ZM296.35 1.63h20.08l-12.7 72.21h-20.18ZM322.67 1.63h21.41l7.17 52 25.5-52h21.41l-37.69 72.21h-25.61ZM447.83 17.51h-26.12l-2 12h23l-2.77 15.26h-23l-2.36 13.11h26.12l-2.77 16H391.6l12.8-72.25h46.19ZM492.18 1.63c17.92 0 25.19 10.25 22.83 23.15-1.63 9.42-8.19 17.62-19.56 20.89l11.27 28.17h-22.33l-9.62-26.63h-2.16l-4.71 26.63h-20.17l12.8-72.21Zm-4.61 16.7h-9.94l-2.56 15.16H485c5.42 0 8.5-2.57 9.42-7.58.83-4.51-1.32-7.58-6.85-7.58ZM545.33 74.55c-17.2 0-29.29-7.57-27.55-23.14H539c-.41 4.61 1.85 7.37 6.76 7.37 3.79 0 6.56-1.74 6.56-5.12 0-10.34-29.91-8.29-30-29.29C522.19 9.11 534.48.51 551.38.51c16.28 0 27.65 8.4 26.11 22.43h-21.61c.72-4.1-1.54-6.66-5.63-6.66-3.59 0-6.15 1.95-6.15 5.22 0 9.83 29.91 9.42 29.91 30.42-.01 12.9-10.76 22.63-28.68 22.63ZM636.38 17.51h-26.11l-2 12h23l-2.77 15.24h-23l-2.4 13.11h26.11l-2.76 16h-46.3L593 1.63h46.19Z" transform="translate(-1.11 -.01)"/></g><g id="OF" class="cls-1"><path class="cls-3" d="M678.77 45.26c-11.12 0-18.37-7.38-18.37-18.13 0-15.55 10.44-26.3 25.6-26.3 11.37 0 18.55 7.25 18.55 18-.04 15.43-10.48 26.43-25.78 26.43Zm1.84-11.19c7.5 0 12-6.51 12-13.82 0-5.16-2.88-8.3-8.17-8.3-7.5 0-12.1 6.39-12.1 13.77-.02 5.1 2.87 8.35 8.27 8.35ZM713.86 1.51h29.37l-1.66 9.58h-17.33l-1.35 7.62h12.72L734 27.87h-12.71l-3 17h-12.1Z" transform="translate(-1.11 -.01)"/></g><g id="METAVERSE" class="cls-1"><path class="cls-3" d="M183.71 91H208l9.94 46.8L243.83 91H268l-12.8 72.2h-20l7.07-39.94-20.77 39.97h-16.8l-6.55-40.15-7.07 40.15h-20.17ZM322.9 106.9h-26.12l-2 12h23L315 134.15h-23l-2.36 13.11h26.12l-2.77 16h-46.32L279.47 91h46.19ZM331.6 91H390l-2.87 16H368l-10 56.23h-20.15l9.93-56.23h-19ZM432.48 151.45h-25.6l-5.94 11.78h-21.1l39-72.2H442l13.52 72.2h-21.2Zm-5.94-38.71-11.88 23.45h15.47ZM469.56 91H491l7.17 52 25.51-52H545l-37.69 72.2h-25.6ZM594.71 106.9H568.6l-2.05 12h23l-2.76 15.26h-23l-2.36 13.11h26.11l-2.76 16h-46.29L551.29 91h46.19ZM639.06 91c17.92 0 25.2 10.24 22.84 23.14-1.64 9.43-8.19 17.62-19.56 20.9l11.26 28.16h-22.32l-9.63-26.63h-2.15l-4.71 26.63h-20.18L607.42 91Zm-4.61 16.69h-9.93L622 122.88h9.93c5.43 0 8.5-2.56 9.42-7.58.78-4.51-1.35-7.58-6.9-7.58ZM692.22 164c-17.21 0-29.29-7.58-27.55-23.15h21.2c-.41 4.61 1.84 7.38 6.76 7.38 3.79 0 6.55-1.74 6.55-5.12 0-10.35-29.9-8.3-30-29.29-.1-15.27 12.19-23.87 29.09-23.87 16.28 0 27.65 8.4 26.12 22.43h-21.62c.71-4.1-1.54-6.66-5.64-6.66-3.58 0-6.14 2-6.14 5.23 0 9.83 29.9 9.42 29.9 30.42 0 12.85-10.75 22.63-28.67 22.63ZM783.27 106.9h-26.12l-2 12h23l-2.77 15.26h-23l-2.38 13.1h26.1l-2.77 16H727L739.84 91H786Z" transform="translate(-1.11 -.01)"/></g><g id="Battle_Infinity" data-name="Battle Infinity" class="cls-1"><path class="cls-4" d="M44 265H1.11l15.37-86.65H58c17.58 0 26.92 8.12 24.46 22.5a24.44 24.44 0 0 1-18.19 19.66c9.95 2.34 14.75 11.06 12.9 20.9C74.73 256 62.69 265 44 265Zm1.35-35.15H31.47l-2.7 15.86h14c5.9 0 9.46-2.46 10.45-7.74s-1.96-8.16-7.86-8.16Zm4.06-32.32H37.25l-2.71 15.36h12.17c5.9 0 9.47-2.58 10.33-7.62s-1.72-7.78-7.62-7.78ZM141 250.83h-30.75L103.12 265H77.8l46.83-86.65h27.78L168.63 265h-25.44Zm-7.13-46.46-14.26 28.15h18.56ZM186.94 178.31H257l-3.44 19.18h-23L218.65 265h-24.21l11.92-67.47H183.5ZM261.17 178.31h70.06l-3.44 19.18h-23L292.88 265h-24.21l11.92-67.47h-22.86ZM364.29 178.31l-11.92 68.34h26.91L376 265h-51.16l15.36-86.65ZM452.66 197.37h-31.34l-2.46 14.38h27.65l-3.32 18.31h-27.65l-2.83 15.73h31.35L440.74 265h-55.56l15.36-86.65H456ZM492.6 178.31h24.09L501.45 265h-24.22ZM610.71 178.31 595.47 265h-24.21l-23.35-48.42L539.3 265h-24.21l15.36-86.65h24.09L578 227.36l8.6-49.05ZM624.47 178.31h58.75l-3.31 19.18h-34.66l-2.71 15.24H668L664.79 231h-25.44l-6 33.92h-24.24ZM693.42 178.31h24.09L702.27 265h-24.21ZM811.54 178.31 796.29 265h-24.21l-23.35-48.42-8.61 48.42h-24.21l15.37-86.65h24.09l23.47 49.05 8.6-49.05ZM825.3 178.31h24.09L834.15 265h-24.22ZM858.36 178.31h70.06L925 197.49h-23L890.07 265h-24.21l11.92-67.47h-22.86ZM931 178.31h27.53l9.35 33.56L989 178.31h27.16l-40.93 59.12-4.91 27.57h-24.09l4.8-27.53Z" transform="translate(-1.11 -.01)"/></g><g id="REDEFINING_BLOCKCHAIN_GAMING" data-name="REDEFINING BLOCKCHAIN GAMING" class="cls-1"><path class="cls-4" d="M22 290.52c8.6 0 12 5 11 11a13 13 0 0 1-10 10.25l6 14.5h-8.37l-5.33-13.93h-3.43l-2.46 13.93H2.19l6.35-35.75Zm-1.28 5.79h-6L12.79 307h6c3.94 0 6.19-2.15 6.76-5.38s-.93-5.31-4.87-5.31ZM61.14 296.1H47.57l-1.64 9.27H58l-1 5.53H45l-1.69 9.68h13.52l-1 5.69H35l6.35-35.8h20.76ZM96.78 308.45c-1.9 10.8-10.55 17.82-22 17.82H62.26l6.35-35.75h12.5c11.42 0 17.61 7.07 15.67 17.93Zm-21.2 12c7.58 0 12.54-4.56 13.88-12s-2.1-11.94-9.68-11.94h-5l-4.2 23.92ZM125.1 296.1h-13.57l-1.64 9.27h12l-1 5.53h-12l-1.69 9.68h13.6l-1 5.69H99l6.35-35.8h20.74ZM132.57 290.52h22.07l-1 5.64h-14.87l-1.64 9.37h11.37l-1 5.53h-11.39l-2.67 15.21h-7.22ZM159.71 290.52h7.17l-6.29 35.75h-7.22ZM204.52 290.47l-6.3 35.8H191l-11.83-24.53-4.35 24.53h-7.22l6.35-35.8h7.17L193 315.05l4.35-24.58ZM211.59 290.52h7.17l-6.3 35.75h-7.22ZM256.4 290.47l-6.3 35.8h-7.22l-11.83-24.53-4.35 24.53h-7.22l6.35-35.8H233l11.88 24.58 4.35-24.58ZM280 290.06c8 0 13.62 4.05 14.69 11.22h-8.24c-1.13-3-3.79-4.61-7.58-4.61-6.4 0-11.68 4.55-12.91 11.67-1.33 7.28 2.36 11.78 9.07 11.78 5.48 0 9.68-3.17 11.62-8.29h-12.28l.92-5.43h19.36l-1.13 6.24a21.77 21.77 0 0 1-19.92 13.93c-10.39 0-16.89-7.52-15-18.23a21.94 21.94 0 0 1 21.4-18.28ZM325.58 326.27h-15.41l6.35-35.75h14.75c7.47 0 11 3.89 10 9.22a10.27 10.27 0 0 1-7.48 8.19c3.79.77 6.1 4.46 5.33 8.66-.99 5.68-6.12 9.68-13.54 9.68Zm1.59-15.52h-7.07l-1.69 9.83h7.22c3.48 0 5.84-1.74 6.35-4.86s-1.33-4.97-4.81-4.97Zm2.05-14.59h-6.51l-1.64 9.21h6.56c3.33 0 5.63-1.64 6.14-4.55s-1.17-4.66-4.55-4.66ZM356.61 290.52l-5.32 30.27h11.78l-1 5.48h-19l6.34-35.75ZM383.35 326.62c-9.17 0-15.21-6.19-15.21-15.05 0-12.5 8.91-21.56 21.2-21.56 9.27 0 15.26 6.15 15.26 14.95 0 12.6-8.86 21.66-21.25 21.66Zm1-6.6c7.89 0 13-6.66 13-14.39 0-5.58-3.28-9-9-9-7.83 0-12.9 6.55-12.9 14.34.01 5.57 3.24 9.03 8.92 9.03ZM429.59 290.06c7.93 0 13.67 4.25 14.8 11.57h-8.25c-1.12-3.27-3.89-5-7.73-5-6.3 0-11.52 4.55-12.75 11.67s2.34 11.7 8.6 11.7a11.19 11.19 0 0 0 9.53-5H442a20.82 20.82 0 0 1-18.84 11.57c-10.35 0-16.8-7.52-14.91-18.23a21.88 21.88 0 0 1 21.34-18.28ZM456.17 310.34l-2.82 15.93h-7.22l6.35-35.75h7.17l-2.82 16 15.82-16h8.66l-17.87 17.72 12 18h-9.14ZM502.87 290.06c7.94 0 13.67 4.25 14.8 11.57h-8.25c-1.12-3.27-3.89-5-7.73-5-6.3 0-11.52 4.55-12.75 11.67s2.35 11.68 8.6 11.68a11.19 11.19 0 0 0 9.53-5h8.24a20.82 20.82 0 0 1-18.84 11.57c-10.35 0-16.8-7.52-14.9-18.23a21.87 21.87 0 0 1 21.3-18.26ZM544.6 311h-15.26l-2.71 15.31h-7.22l6.35-35.75h7.17l-2.61 14.8h15.31l2.61-14.8h7.17l-6.3 35.75h-7.22ZM579.27 319.46H565l-3.54 6.81h-7.53l19.21-35.8h8.34l6.51 35.8h-7.59Zm-3.48-20.74-7.89 15.15h10.45ZM599.14 290.52h7.17L600 326.27h-7.22ZM644 290.47l-6.3 35.8h-7.22l-11.88-24.53-4.35 24.53H607l6.35-35.8h7.17l11.88 24.58 4.35-24.58ZM681.28 290.06c8 0 13.62 4.05 14.7 11.22h-8.25c-1.12-3-3.79-4.61-7.58-4.61-6.4 0-11.67 4.55-12.9 11.67-1.33 7.28 2.36 11.78 9.06 11.78 5.48 0 9.68-3.17 11.63-8.29h-12.29l.92-5.43h19.36l-1.13 6.24a21.77 21.77 0 0 1-19.92 13.93c-10.4 0-16.9-7.52-15-18.23a21.93 21.93 0 0 1 21.4-18.28ZM720.87 319.46h-14.29l-3.53 6.81h-7.53l19.2-35.8h8.35l6.5 35.8H722Zm-3.49-20.74-7.88 15.15h10.44ZM740.74 290.52h8.14l6.71 26.53 16-26.53h8.15l-6.3 35.75h-7.22l4.09-23.15-13.62 23.15h-5.48l-5.48-23.2-4.09 23.2h-7.22ZM786.77 290.52h7.17l-6.3 35.75h-7.22ZM831.58 290.47l-6.3 35.8h-7.22l-11.83-24.53-4.35 24.53h-7.22l6.35-35.8h7.17l11.88 24.58 4.35-24.58ZM855.19 290.06c8 0 13.62 4.05 14.7 11.22h-8.25c-1.13-3-3.79-4.61-7.58-4.61-6.4 0-11.67 4.55-12.9 11.67-1.33 7.28 2.35 11.78 9.06 11.78 5.48 0 9.68-3.17 11.63-8.29h-12.29l.92-5.43h19.35l-1.12 6.24a21.79 21.79 0 0 1-19.92 13.93c-10.4 0-16.9-7.52-15-18.23a21.94 21.94 0 0 1 21.4-18.28Z" transform="translate(-1.11 -.01)"/></g></svg>