<svg xmlns="http://www.w3.org/2000/svg" width="256" height="256" xml:space="preserve"><g><g style="stroke:none;stroke-width:0;stroke-dasharray:none;stroke-linecap:butt;stroke-linejoin:miter;stroke-miterlimit:10;fill:none;fill-rule:nonzero;opacity:1"><path d="M48.831 86.169c-13.336 0-25.904-6.506-33.62-17.403a41.012 41.012 0 0 1-5.437-10.717l5.606-1.872a35.139 35.139 0 0 0 4.654 9.174c6.61 9.336 17.376 14.908 28.797 14.908 19.443 0 35.26-15.817 35.26-35.26 0-19.442-15.817-35.259-35.26-35.259-19.442 0-35.26 15.818-35.26 35.26h-5.91c0-22.701 18.468-41.169 41.169-41.169C71.532 3.831 90 22.299 90 45c0 22.701-18.468 41.169-41.169 41.169z" style="stroke:none;stroke-width:1;stroke-dasharray:none;stroke-linecap:butt;stroke-linejoin:miter;stroke-miterlimit:10;fill:#fff;fill-rule:nonzero;opacity:1" transform="translate(1.964 1.964) scale(2.8008)"/><path style="stroke:none;stroke-width:1;stroke-dasharray:none;stroke-linecap:butt;stroke-linejoin:miter;stroke-miterlimit:10;fill:#fff;fill-rule:nonzero;opacity:1" transform="translate(1.964 1.964) scale(2.8008)" d="M64.67 61.69 45.88 46.41V19.03h5.9v24.56L68.4 57.1zM21.23 40.41 10.62 51.02 0 40.41z"/></g></g></svg>