<svg version="1.1" id="Layer_1" xmlns="http://www.w3.org/2000/svg" x="0" y="0" viewBox="0 0 426.667 426.667" style="enable-background:new 0 0 426.667 426.667" xml:space="preserve" fill="#fff"><path d="M383.168 113.227a10.678 10.678 0 0 0-2.304-3.435L274.197 3.125A10.739 10.739 0 0 0 266.666 0H96c-5.891 0-10.667 4.776-10.667 10.667v32h-32c-5.891 0-10.667 4.776-10.667 10.667V416c0 5.891 4.776 10.667 10.667 10.667h277.333c5.891 0 10.667-4.776 10.667-10.667v-32h32c5.891 0 10.667-4.776 10.667-10.667v-256a10.664 10.664 0 0 0-.832-4.106zM277.333 36.416l70.251 70.251h-70.251V36.416zM320 405.333H64V64h21.333v309.333C85.333 379.224 90.109 384 96 384h224v21.333zm42.667-42.666h-256V21.333H256v96c0 5.891 4.776 10.667 10.667 10.667h96v234.667z"/></svg>