<svg version="1.1" id="Layer_1" xmlns="http://www.w3.org/2000/svg" x="0" y="0" viewBox="0 0 329.957 329.957" style="enable-background:new 0 0 329.957 329.957" xml:space="preserve" fill="#fff"><path id="XMLID_235_" d="M256.526 19.154C231.821 6.803 199.309 0 164.978 0c-34.333 0-66.846 6.803-91.55 19.155C45.42 33.159 29.995 52.989 29.995 74.991v179.974c0 22.003 15.425 41.833 43.433 55.837 24.704 12.352 57.216 19.154 91.55 19.154 34.331 0 66.843-6.803 91.547-19.154 28.01-14.005 43.436-33.834 43.436-55.837V74.991c.001-22.002-15.425-41.832-43.435-55.837zm13.436 175.82c0 21.238-44.897 44.992-104.983 44.992-60.086 0-104.983-23.754-104.983-44.992v-11.965c4.091 2.765 8.567 5.378 13.433 7.811 24.704 12.352 57.217 19.154 91.55 19.154 34.331 0 66.843-6.803 91.547-19.154 4.867-2.433 9.344-5.046 13.436-7.812v11.966zm0-59.991c0 21.237-44.897 44.99-104.983 44.99-60.086 0-104.983-23.753-104.983-44.99v-11.966c4.091 2.766 8.567 5.378 13.433 7.81 24.704 12.353 57.217 19.155 91.55 19.155 34.331 0 66.843-6.803 91.548-19.155 4.867-2.434 9.344-5.046 13.435-7.812v11.968zM164.978 30c60.086 0 104.983 23.753 104.983 44.991 0 21.239-44.897 44.992-104.983 44.992-60.086 0-104.983-23.753-104.983-44.992C59.995 53.753 104.892 30 164.978 30zm0 269.957c-60.086 0-104.983-23.753-104.983-44.991V243c4.091 2.766 8.567 5.378 13.433 7.811 24.704 12.353 57.217 19.155 91.55 19.155 34.331 0 66.843-6.803 91.547-19.155 4.867-2.434 9.344-5.046 13.436-7.812v11.967c.001 21.238-44.896 44.991-104.983 44.991z"/></svg>