<svg version="1.0" xmlns="http://www.w3.org/2000/svg" width="458.667" height="458.667" viewBox="0 0 344 344"><g fill="#eee"><path d="M43.6 29.5c-.8.8-1.7 2.3-2 3.3-.3 1 4.5 16.7 10.6 35l11.3 33.1 71.3 63.6c39.2 34.9 71.5 63.5 71.8 63.5.2 0 2.6-4.4 5.3-9.8 2.7-5.3 6.2-11 7.7-12.6 1.6-1.5 7.5-5.1 13-8l10.2-5.1-64.4-71.7L114 49.2 82.3 38.6C64.8 32.8 49.3 28 47.8 28s-3.3.7-4.2 1.5zM261.2 38.7 230 49.2l-24.3 27c-13.3 14.8-24 27.3-23.9 27.6 1 1.9 41.8 47 42.4 46.9.4-.1 13.3-11.5 28.7-25.2l28.1-25 11-33.2c9.7-29 11-33.5 9.9-35.5-1.6-3.1-2.8-3.8-6.4-3.7-1.6 0-17.1 4.8-34.3 10.6zM110.9 181.8l-9.7 10.7 10.2 5.1c5.5 2.9 11.4 6.5 13 8 1.5 1.6 5 7.3 7.7 12.6 2.7 5.4 5.2 9.8 5.5 9.8.7 0 22.8-20 23.2-21 .3-.8-38.6-36-39.7-36-.3 0-4.9 4.8-10.2 10.8zM47.8 190c-5.9 5.2-7.5 8.8-5.5 12.6.9 1.6 20.4 21.7 43.4 44.6 34.9 34.8 42.4 41.8 44.7 41.8 4 0 13.6-9.3 13.6-13.2 0-1.6-6-14.7-14.5-31.8L115 215l-29-14.5c-15.9-8-30.1-14.5-31.4-14.5-1.3 0-4.3 1.7-6.8 4zM257.8 200.6 229 215l-14.5 29c-8.5 17.1-14.5 30.2-14.5 31.8 0 3.9 9.6 13.2 13.6 13.2 2.3 0 9.8-7 44.7-41.8 23-22.9 42.5-43 43.4-44.6 1.2-2.3 1.2-3.3.2-5.7-1.7-4.3-9.6-10.9-12.8-10.8-1.4 0-15.5 6.5-31.3 14.5zM48.9 258.3c-8.8 12.4-12.1 16.3-14 16.5-12.5 1.6-20.9 9.9-20.9 20.7 0 12 8.5 20.5 20.5 20.5 10.5 0 17.9-6.3 20-16.8l1.1-5.6L71 282.3c8.5-6.2 15.8-11.7 16.4-12.3.7-.7-3.1-5.2-12.4-14.5-7.4-7.4-13.7-13.5-14-13.4-.3 0-5.7 7.3-12.1 16.2zM269 255.5c-9.3 9.3-13.1 13.8-12.4 14.5.6.6 7.9 6.1 16.4 12.3l15.4 11.3 1.1 5.6c2.1 10.5 9.5 16.8 20 16.8 12 0 20.5-8.5 20.5-20.5 0-10.8-8.4-19.1-20.9-20.7-1.9-.2-5.2-4.1-14-16.5-6.4-8.9-11.8-16.2-12.1-16.2-.3-.1-6.6 6-14 13.4z"/></g></svg>