<svg xmlns="http://www.w3.org/2000/svg" width="256" height="256" xml:space="preserve"><g><g style="stroke:none;stroke-width:0;stroke-dasharray:none;stroke-linecap:butt;stroke-linejoin:miter;stroke-miterlimit:10;fill:none;fill-rule:nonzero;opacity:1"><path d="M69.704 75.086c-.5 0-1.005-.098-1.486-.297a3.867 3.867 0 0 1-2.393-3.581v-4.643h-31.29a2 2 0 0 1 0-4h31.414a3.88 3.88 0 0 1 3.876 3.875v4.467l16.126-16.125-16.126-16.124v4.467a3.88 3.88 0 0 1-3.876 3.876H47.175a2 2 0 0 1 0-4h18.65v-4.643c0-1.573.939-2.978 2.392-3.58a3.865 3.865 0 0 1 4.224.839l16.427 16.427a3.882 3.882 0 0 1 .001 5.48L72.441 73.949a3.866 3.866 0 0 1-2.737 1.137z" style="stroke:none;stroke-width:1;stroke-dasharray:none;stroke-linecap:butt;stroke-linejoin:miter;stroke-miterlimit:10;fill:#000;fill-rule:nonzero;opacity:1" transform="translate(1.964 1.964) scale(2.8008)"/><path d="M20.296 55.521a3.867 3.867 0 0 1-2.737-1.138L1.133 37.958a3.88 3.88 0 0 1 0-5.481l16.426-16.426a3.866 3.866 0 0 1 4.223-.84 3.864 3.864 0 0 1 2.392 3.581v4.643h31.29a2 2 0 0 1 0 4H24.05a3.88 3.88 0 0 1-3.876-3.875v-4.467L4.05 35.217l16.125 16.125v-4.467A3.88 3.88 0 0 1 24.051 43h23.125a2 2 0 0 1 0 4h-23v4.644a3.863 3.863 0 0 1-2.393 3.58 3.902 3.902 0 0 1-1.487.297z" style="stroke:none;stroke-width:1;stroke-dasharray:none;stroke-linecap:butt;stroke-linejoin:miter;stroke-miterlimit:10;fill:#000;fill-rule:nonzero;opacity:1" transform="translate(1.964 1.964) scale(2.8008)"/></g></g></svg>