<svg version="1.0" xmlns="http://www.w3.org/2000/svg" width="458.667" height="458.667" viewBox="0 0 344 344"><g fill="#eee"><path d="M80.8 47.4C69 50.6 58.6 60 52 73.4c-7.2 14.6-7.2 15.7-.7 41.9l5.7 22.6-5.5 21.6-5.5 21.6v54c0 46.3.2 54.4 1.5 56.9 3.3 6.4-4.1 6 124.5 6s121.2.4 124.5-6c1.3-2.5 1.5-10.5 1.5-56.5v-53.6l-5.5-21.9-5.5-22 5.7-22.7c6.6-26.3 6.5-27.3-.9-42.3-5.3-10.8-13-18.8-22.5-23.3l-6.8-3.2-88.5-.2c-68.8-.1-89.5.1-93.2 1.1zm182.9 25.2c3.9 3.2 10.3 14 10.3 17.5 0 1.9-2.2 1.9-102 1.9-98.4 0-102-.1-102-1.8 0-2.7 5.6-13.4 8.2-15.9 6-5.6 1-5.3 95-5.1l86.6.3 3.9 3.1zm-82.1 44.3c7.3 3.3 13.4 12.6 13.4 20.6 0 2.2.3 2.6 1.8 1.9.9-.4 4.9-.9 8.7-1.1 6.4-.4 7.5-.1 12.2 2.6 3.5 2.1 6.1 4.6 7.8 7.6l2.7 4.5 3.1-1.7c2.1-1.2 5.6-1.8 10.3-1.8 6 0 7.6.4 11.2 2.7 4.6 3.1 8.6 9.3 10 15.5l1 4.3h-93.9c-61.3 0-93.9-.3-93.9-1 0-3.1 4.5-11.9 7.7-15.2 7.1-7.3 19.2-8.7 27.5-3.3l3.8 2.5v-5.7c.1-7.4 2.5-12.9 8-17.6 6.9-5.9 16.8-7.2 24.4-3.2 2.8 1.5 4.5.9 4.6-1.7 0-1.8 6.9-8.3 10.5-9.9 5.2-2.4 13.8-2.4 19.1 0zM89 196.3c0 .7-1.6 3.6-3.5 6.4-3.3 5-12.4 12.3-15.2 12.3-1 0-1.3-2.6-1.3-10v-10h10c7.4 0 10 .3 10 1.3zm106 17.3c0 21-.7 24.5-5.9 30.5-4.5 5.3-10.1 7.9-17.1 7.9-7 0-12.6-2.6-17.1-7.9-5.2-6-5.9-9.5-5.9-30.5V195h46v18.6zm80-8.6c0 6.4-.4 10-1.1 10-4.9 0-18.9-13.9-18.9-18.8 0-.8 3.1-1.2 10-1.2h10v10zM77.6 259.2c2.3 1.6 5 4.2 6.1 5.6 2.1 2.8 5.3 8.7 5.3 9.7 0 .3-4.5.5-10 .5H69v-10.1c0-9.9 0-10 2.3-9.3 1.2.4 4.1 2 6.3 3.6zM275 265v10h-10c-7.6 0-10-.3-10-1.3 0-4.3 14.2-18.5 18.8-18.6.9-.1 1.2 2.5 1.2 9.9z"/><path d="M164.4 221.4c-2.9 2.9-3.4 4.1-3.4 7.9 0 8 7 13.2 14.5 10.7 4.9-1.6 7.5-5.3 7.5-10.7 0-3.8-.5-5-3.4-7.9-2.8-2.8-4.2-3.4-7.6-3.4-3.4 0-4.8.6-7.6 3.4z"/></g></svg>