<svg width="24" height="24" xmlns="http://www.w3.org/2000/svg"><g id="🔍-Product-Icons" stroke="none" stroke-width="1" fill="none" fill-rule="evenodd"><g id="ic_fluent_globe_24_regular" fill="#fff" fill-rule="nonzero"><path d="M12 1.999c5.524 0 10.002 4.478 10.002 10.002 0 5.523-4.478 10.001-10.002 10.001-5.524 0-10.002-4.478-10.002-10.001C1.998 6.477 6.476 1.999 12 1.999ZM14.939 16.5H9.06c.652 2.414 1.785 4.002 2.939 4.002 1.154 0 2.287-1.588 2.939-4.002Zm-7.43 0H4.785a8.532 8.532 0 0 0 4.094 3.411c-.522-.82-.953-1.846-1.27-3.015l-.102-.395Zm11.705 0h-2.722c-.324 1.335-.792 2.5-1.373 3.411a8.528 8.528 0 0 0 3.91-3.127l.185-.283ZM7.094 10H3.735l-.005.017a8.524 8.524 0 0 0-.233 1.984c0 1.056.193 2.067.545 3h3.173a20.3 20.3 0 0 1-.218-3c0-.684.033-1.354.095-2.001Zm8.303 0H8.603a18.967 18.967 0 0 0 .135 5h6.524a18.967 18.967 0 0 0 .135-5Zm4.868-.001h-3.358c.062.648.095 1.318.095 2.002a20.3 20.3 0 0 1-.218 3h3.173a8.483 8.483 0 0 0 .545-3c0-.69-.083-1.36-.237-2.002ZM8.88 4.089l-.023.01A8.531 8.531 0 0 0 4.25 8.5h3.048c.314-1.752.86-3.278 1.583-4.41ZM12 3.5l-.116.005C10.62 3.62 9.396 5.622 8.83 8.5h6.342c-.566-2.87-1.783-4.869-3.045-4.995L12 3.5Zm3.12.59.107.175c.67 1.112 1.177 2.572 1.475 4.237h3.048a8.533 8.533 0 0 0-4.339-4.29l-.291-.121Z" id="🎨-Color"/></g></g></svg>